<mxfile host="app.diagrams.net" agent="Mozilla/5.0 (Windows NT 10.0; Win64; x64) AppleWebKit/537.36 (KHTML, like Gecko) Chrome/126.0.0.0 YaBrowser/24.7.0.0 Safari/537.36" version="24.7.10">
  <diagram name="Page-1" id="13e1069c-82ec-6db2-03f1-153e76fe0fe0">
    <mxGraphModel dx="2633" dy="1667" grid="0" gridSize="10" guides="1" tooltips="1" connect="1" arrows="1" fold="1" page="0" pageScale="1" pageWidth="1100" pageHeight="850" background="none" math="0" shadow="0">
      <root>
        <mxCell id="0" />
        <mxCell id="1" parent="0" />
        <mxCell id="xLVlrx0OUY6mFYsMY_Td-1" value="" style="html=1;jettySize=18;whiteSpace=wrap;fontSize=13;strokeColor=#333333;strokeOpacity=100;dashed=1;fixDash=1;dashPattern=16 6;strokeWidth=0.8;rounded=1;arcSize=10;edgeStyle=orthogonalEdgeStyle;startArrow=none;endArrow=none;exitX=0.5;exitY=0.532;exitPerimeter=0;lucidId=IAwLxIo0pnfK;" edge="1" parent="1" source="xLVlrx0OUY6mFYsMY_Td-5">
          <mxGeometry width="100" height="100" relative="1" as="geometry">
            <Array as="points" />
            <mxPoint x="549" y="1755" as="targetPoint" />
          </mxGeometry>
        </mxCell>
        <mxCell id="xLVlrx0OUY6mFYsMY_Td-2" value="" style="html=1;jettySize=18;whiteSpace=wrap;fontSize=13;fontFamily=helvetica;strokeColor=#333333;strokeOpacity=100;dashed=1;fixDash=1;dashPattern=16 6;strokeWidth=0.8;rounded=0;startArrow=none;endArrow=none;exitX=0.5;exitY=1;exitPerimeter=0;lucidId=IAwLvXf1i2cN;" edge="1" parent="1" source="xLVlrx0OUY6mFYsMY_Td-4">
          <mxGeometry width="100" height="100" relative="1" as="geometry">
            <Array as="points" />
            <mxPoint x="783" y="1748" as="targetPoint" />
          </mxGeometry>
        </mxCell>
        <mxCell id="xLVlrx0OUY6mFYsMY_Td-3" value="" style="html=1;overflow=block;blockSpacing=1;whiteSpace=wrap;fontSize=13;spacing=0;strokeColor=#unset;rounded=1;absoluteArcSize=1;arcSize=12;fillColor=none;strokeWidth=NaN;lucidId=IAwLC96ECxhN;" vertex="1" parent="1">
          <mxGeometry x="768" y="1190" width="30" height="532" as="geometry" />
        </mxCell>
        <mxCell id="xLVlrx0OUY6mFYsMY_Td-4" value="frontUser" style="html=1;overflow=block;blockSpacing=1;whiteSpace=wrap;fontSize=13.3;fontStyle=4;align=center;spacing=0;strokeColor=#unset;rounded=1;absoluteArcSize=1;arcSize=12;fillColor=none;strokeWidth=NaN;" vertex="1" parent="1">
          <mxGeometry x="711" y="1048" width="143" height="92" as="geometry" />
        </mxCell>
        <mxCell id="xLVlrx0OUY6mFYsMY_Td-5" value="Actor" style="html=1;overflow=block;blockSpacing=1;shape=umlActor;labelPosition=center;verticalLabelPosition=bottom;verticalAlign=top;whiteSpace=nowrap;fontSize=13.3;fontColor=#3a414a;align=center;spacing=0;strokeColor=#333333;strokeOpacity=100;fillOpacity=100;rounded=1;absoluteArcSize=1;arcSize=12;fillColor=#ffffff;strokeWidth=0.8;lucidId=IAwLaaGdBQIP;" vertex="1" parent="1">
          <mxGeometry x="517" y="1072" width="60" height="135" as="geometry" />
        </mxCell>
        <mxCell id="xLVlrx0OUY6mFYsMY_Td-6" value="" style="html=1;jettySize=18;whiteSpace=wrap;fontSize=13;strokeColor=#333333;strokeOpacity=100;strokeWidth=0.8;rounded=1;arcSize=10;edgeStyle=orthogonalEdgeStyle;startArrow=none;endArrow=block;endFill=1;entryX=-0.012;entryY=0.121;entryPerimeter=0;lucidId=IAwLfXprWSSb;" edge="1" parent="1" target="xLVlrx0OUY6mFYsMY_Td-3">
          <mxGeometry width="100" height="100" relative="1" as="geometry">
            <Array as="points" />
            <mxPoint x="549" y="1255" as="sourcePoint" />
          </mxGeometry>
        </mxCell>
        <mxCell id="xLVlrx0OUY6mFYsMY_Td-7" value="add.CallTax (geopoint)i" style="text;html=1;resizable=0;labelBackgroundColor=default;align=center;verticalAlign=middle;fontColor=#3a414a;fontSize=13.3;" vertex="1" parent="xLVlrx0OUY6mFYsMY_Td-6">
          <mxGeometry relative="1" as="geometry">
            <mxPoint as="offset" />
          </mxGeometry>
        </mxCell>
        <mxCell id="xLVlrx0OUY6mFYsMY_Td-8" value="" style="html=1;jettySize=18;whiteSpace=wrap;fontSize=13;strokeColor=#333333;strokeOpacity=100;strokeWidth=0.8;rounded=1;arcSize=10;edgeStyle=orthogonalEdgeStyle;startArrow=none;endArrow=block;endFill=1;exitX=1.012;exitY=0.193;exitPerimeter=0;entryX=-0.012;entryY=0.277;entryPerimeter=0;lucidId=v3fyiHqa8W6r;" edge="1" parent="1" source="xLVlrx0OUY6mFYsMY_Td-3" target="xLVlrx0OUY6mFYsMY_Td-13">
          <mxGeometry width="100" height="100" relative="1" as="geometry">
            <Array as="points" />
          </mxGeometry>
        </mxCell>
        <mxCell id="xLVlrx0OUY6mFYsMY_Td-9" value="add.CallTax (geopoint, classCar, endpoint)i" style="text;html=1;resizable=0;labelBackgroundColor=default;align=center;verticalAlign=middle;fontColor=#3a414a;fontSize=13.3;" vertex="1" parent="xLVlrx0OUY6mFYsMY_Td-8">
          <mxGeometry relative="1" as="geometry">
            <mxPoint as="offset" />
          </mxGeometry>
        </mxCell>
        <mxCell id="xLVlrx0OUY6mFYsMY_Td-10" value="" style="html=1;jettySize=18;whiteSpace=wrap;fontSize=13;strokeColor=#333333;strokeOpacity=100;dashed=1;fixDash=1;dashPattern=16 6;strokeWidth=0.8;rounded=1;arcSize=10;edgeStyle=orthogonalEdgeStyle;startArrow=none;endArrow=none;exitX=0.5;exitY=0.532;exitPerimeter=0;lucidId=Q3fyF0zdMYaH;" edge="1" parent="1" source="xLVlrx0OUY6mFYsMY_Td-11">
          <mxGeometry width="100" height="100" relative="1" as="geometry">
            <Array as="points" />
            <mxPoint x="2147" y="1733" as="targetPoint" />
          </mxGeometry>
        </mxCell>
        <mxCell id="xLVlrx0OUY6mFYsMY_Td-11" value="Driver" style="html=1;overflow=block;blockSpacing=1;shape=umlActor;labelPosition=center;verticalLabelPosition=bottom;verticalAlign=top;whiteSpace=nowrap;fontSize=13.3;fontColor=#3a414a;align=center;spacing=0;strokeColor=#333333;strokeOpacity=100;fillOpacity=100;rounded=1;absoluteArcSize=1;arcSize=12;fillColor=#ffffff;strokeWidth=0.8;lucidId=Q3fyPBO5Z~-K;" vertex="1" parent="1">
          <mxGeometry x="2115" y="1050" width="60" height="135" as="geometry" />
        </mxCell>
        <mxCell id="xLVlrx0OUY6mFYsMY_Td-12" value="" style="html=1;jettySize=18;whiteSpace=wrap;fontSize=13;fontFamily=helvetica;strokeColor=#333333;strokeOpacity=100;dashed=1;fixDash=1;dashPattern=16 6;strokeWidth=0.8;rounded=0;startArrow=none;endArrow=none;exitX=0.5;exitY=1;exitPerimeter=0;entryX=0.473;entryY=1.001;entryPerimeter=0;lucidId=FpgyxyQnjq8Q;" edge="1" parent="1" source="xLVlrx0OUY6mFYsMY_Td-14" target="xLVlrx0OUY6mFYsMY_Td-13">
          <mxGeometry width="100" height="100" relative="1" as="geometry">
            <Array as="points" />
          </mxGeometry>
        </mxCell>
        <mxCell id="xLVlrx0OUY6mFYsMY_Td-13" value="" style="html=1;overflow=block;blockSpacing=1;whiteSpace=wrap;fontSize=13;spacing=0;strokeColor=#unset;rounded=1;absoluteArcSize=1;arcSize=12;fillColor=none;strokeWidth=NaN;lucidId=Fpgy8Ddc~dmH;" vertex="1" parent="1">
          <mxGeometry x="957" y="1190" width="30" height="370" as="geometry" />
        </mxCell>
        <mxCell id="xLVlrx0OUY6mFYsMY_Td-14" value="backUser" style="html=1;overflow=block;blockSpacing=1;whiteSpace=wrap;fontSize=13.3;fontStyle=4;align=center;spacing=0;strokeColor=#unset;rounded=1;absoluteArcSize=1;arcSize=12;fillColor=none;strokeWidth=NaN;" vertex="1" parent="1">
          <mxGeometry x="900" y="1048" width="143" height="92" as="geometry" />
        </mxCell>
        <mxCell id="xLVlrx0OUY6mFYsMY_Td-15" value="" style="html=1;jettySize=18;whiteSpace=wrap;fontSize=13;fontFamily=helvetica;strokeColor=#333333;strokeOpacity=100;dashed=1;fixDash=1;dashPattern=16 6;strokeWidth=0.8;rounded=1;arcSize=24;edgeStyle=orthogonalEdgeStyle;startArrow=none;endArrow=none;exitX=0.5;exitY=1;exitPerimeter=0;lucidId=3pgyOaLExa5e;" edge="1" parent="1" source="xLVlrx0OUY6mFYsMY_Td-17">
          <mxGeometry width="100" height="100" relative="1" as="geometry">
            <Array as="points" />
            <mxPoint x="1408" y="1440" as="targetPoint" />
          </mxGeometry>
        </mxCell>
        <mxCell id="xLVlrx0OUY6mFYsMY_Td-16" value="" style="html=1;overflow=block;blockSpacing=1;whiteSpace=wrap;fontSize=13;spacing=0;strokeColor=#unset;rounded=1;absoluteArcSize=1;arcSize=12;fillColor=none;strokeWidth=NaN;lucidId=3pgyI6R6Z6CY;" vertex="1" parent="1">
          <mxGeometry x="1393" y="1235" width="30" height="190" as="geometry" />
        </mxCell>
        <mxCell id="xLVlrx0OUY6mFYsMY_Td-17" value="ServiceGeo" style="html=1;overflow=block;blockSpacing=1;whiteSpace=wrap;fontSize=13.3;fontStyle=4;align=center;spacing=0;strokeColor=#unset;rounded=1;absoluteArcSize=1;arcSize=12;fillColor=none;strokeWidth=NaN;" vertex="1" parent="1">
          <mxGeometry x="1336" y="1048" width="143" height="92" as="geometry" />
        </mxCell>
        <mxCell id="xLVlrx0OUY6mFYsMY_Td-18" value="" style="html=1;jettySize=18;whiteSpace=wrap;fontSize=13;fontFamily=helvetica;strokeColor=#333333;strokeOpacity=100;dashed=1;fixDash=1;dashPattern=16 6;strokeWidth=0.8;rounded=1;arcSize=24;edgeStyle=orthogonalEdgeStyle;startArrow=none;endArrow=none;exitX=0.5;exitY=1;exitPerimeter=0;lucidId=sqgybjJvcuCd;" edge="1" parent="1" source="xLVlrx0OUY6mFYsMY_Td-20">
          <mxGeometry width="100" height="100" relative="1" as="geometry">
            <Array as="points" />
            <mxPoint x="1916" y="1755" as="targetPoint" />
          </mxGeometry>
        </mxCell>
        <mxCell id="xLVlrx0OUY6mFYsMY_Td-19" value="" style="html=1;overflow=block;blockSpacing=1;whiteSpace=wrap;fontSize=13;spacing=0;strokeColor=#unset;rounded=1;absoluteArcSize=1;arcSize=12;fillColor=none;strokeWidth=NaN;lucidId=sqgyC0_7dAJn;" vertex="1" parent="1">
          <mxGeometry x="1901" y="1235" width="30" height="487" as="geometry" />
        </mxCell>
        <mxCell id="xLVlrx0OUY6mFYsMY_Td-20" value="FrontDriver" style="html=1;overflow=block;blockSpacing=1;whiteSpace=wrap;fontSize=13.3;fontStyle=4;align=center;spacing=0;strokeColor=#unset;rounded=1;absoluteArcSize=1;arcSize=12;fillColor=none;strokeWidth=NaN;" vertex="1" parent="1">
          <mxGeometry x="1845" y="1048" width="143" height="92" as="geometry" />
        </mxCell>
        <mxCell id="xLVlrx0OUY6mFYsMY_Td-21" value="&lt;div style=&quot;display: flex; justify-content: flex-start; text-align: left; align-items: baseline; font-size: 0; line-height: 1.25;margin-top: -2px;&quot;&gt;&lt;span&gt;&lt;span style=&quot;font-size:16px;&quot;&gt;приложение клиента&#xa;&lt;/span&gt;&lt;/span&gt;&lt;/div&gt;&lt;div style=&quot;display: flex; justify-content: flex-start; text-align: left; align-items: baseline; font-size: 0; line-height: 1.25;margin-top: -2px;&quot;&gt;&lt;span&gt;&lt;span style=&quot;font-size:16px;&quot;&gt;бэк для клиента&#xa;&lt;/span&gt;&lt;/span&gt;&lt;/div&gt;&lt;div style=&quot;display: flex; justify-content: flex-start; text-align: left; align-items: baseline; font-size: 0; line-height: 1.25;margin-top: -2px;&quot;&gt;&lt;span&gt;&lt;span style=&quot;font-size:16px;&quot;&gt;сервис заказов&#xa;&lt;/span&gt;&lt;/span&gt;&lt;/div&gt;&lt;div style=&quot;display: flex; justify-content: flex-start; text-align: left; align-items: baseline; font-size: 0; line-height: 1.25;margin-top: -2px;&quot;&gt;&lt;span&gt;&lt;span style=&quot;font-size:16px;&quot;&gt;сервис сессий, включает в себя&#xa;&lt;/span&gt;&lt;/span&gt;&lt;/div&gt;&lt;div style=&quot;display: flex; justify-content: flex-start; text-align: left; align-items: baseline; font-size: 0; line-height: 1.25;margin-top: -2px;&quot;&gt;&lt;span&gt;&lt;span style=&quot;font-size:16px;&quot;&gt;информацию по водителю и его рейтингу&#xa;&lt;/span&gt;&lt;/span&gt;&lt;/div&gt;&lt;div style=&quot;display: flex; justify-content: flex-start; text-align: left; align-items: baseline; font-size: 0; line-height: 1.25;margin-top: -2px;&quot;&gt;&lt;span&gt;&lt;span style=&quot;font-size:16px;&quot;&gt;информацию по автомобилю&#xa;&lt;/span&gt;&lt;/span&gt;&lt;/div&gt;&lt;div style=&quot;display: flex; justify-content: flex-start; text-align: left; align-items: baseline; font-size: 0; line-height: 1.25;margin-top: -2px;&quot;&gt;&lt;span&gt;&lt;span style=&quot;font-size:16px;&quot;&gt;сервис гео-локации&#xa;&lt;/span&gt;&lt;/span&gt;&lt;/div&gt;&lt;div style=&quot;display: flex; justify-content: flex-start; text-align: left; align-items: baseline; font-size: 0; line-height: 1.25;margin-top: -2px;&quot;&gt;&lt;span&gt;&lt;span style=&quot;font-size:16px;&quot;&gt;приложение водителя&lt;/span&gt;&lt;/span&gt;&lt;/div&gt;" style="html=1;overflow=block;blockSpacing=1;whiteSpace=wrap;fontSize=13;align=left;spacing=3.8;verticalAlign=top;strokeColor=#unset;rounded=1;absoluteArcSize=1;arcSize=12;fillColor=none;strokeWidth=NaN;lucidId=vrgyyiVkUD8D;" vertex="1" parent="1">
          <mxGeometry x="780" y="810" width="735" height="161" as="geometry" />
        </mxCell>
        <mxCell id="xLVlrx0OUY6mFYsMY_Td-22" value="" style="html=1;jettySize=18;whiteSpace=wrap;fontSize=13;fontFamily=helvetica;strokeColor=#333333;strokeOpacity=100;dashed=1;fixDash=1;dashPattern=16 6;strokeWidth=0.8;rounded=1;arcSize=24;edgeStyle=orthogonalEdgeStyle;startArrow=none;endArrow=none;exitX=0.5;exitY=1;exitPerimeter=0;lucidId=7rgyqslDyuar;" edge="1" parent="1" source="xLVlrx0OUY6mFYsMY_Td-24">
          <mxGeometry width="100" height="100" relative="1" as="geometry">
            <Array as="points" />
            <mxPoint x="1190" y="1755" as="targetPoint" />
          </mxGeometry>
        </mxCell>
        <mxCell id="xLVlrx0OUY6mFYsMY_Td-23" value="" style="html=1;overflow=block;blockSpacing=1;whiteSpace=wrap;fontSize=13;spacing=0;strokeColor=#unset;rounded=1;absoluteArcSize=1;arcSize=12;fillColor=none;strokeWidth=NaN;lucidId=7rgy.ULgfgYd;" vertex="1" parent="1">
          <mxGeometry x="1175" y="1235" width="30" height="487" as="geometry" />
        </mxCell>
        <mxCell id="xLVlrx0OUY6mFYsMY_Td-24" value="ServiceOrder" style="html=1;overflow=block;blockSpacing=1;whiteSpace=wrap;fontSize=13.3;fontStyle=4;align=center;spacing=0;strokeColor=#unset;rounded=1;absoluteArcSize=1;arcSize=12;fillColor=none;strokeWidth=NaN;" vertex="1" parent="1">
          <mxGeometry x="1118" y="1048" width="143" height="92" as="geometry" />
        </mxCell>
        <mxCell id="xLVlrx0OUY6mFYsMY_Td-25" value="" style="html=1;jettySize=18;whiteSpace=wrap;fontSize=13;fontFamily=helvetica;strokeColor=#333333;strokeOpacity=100;dashed=1;fixDash=1;dashPattern=16 6;strokeWidth=0.8;rounded=1;arcSize=24;edgeStyle=orthogonalEdgeStyle;startArrow=none;endArrow=none;exitX=0.5;exitY=1;exitPerimeter=0;lucidId=gsgyXSH5.RdS;" edge="1" parent="1" source="xLVlrx0OUY6mFYsMY_Td-27">
          <mxGeometry width="100" height="100" relative="1" as="geometry">
            <Array as="points" />
            <mxPoint x="1646" y="1515" as="targetPoint" />
          </mxGeometry>
        </mxCell>
        <mxCell id="xLVlrx0OUY6mFYsMY_Td-26" value="" style="html=1;overflow=block;blockSpacing=1;whiteSpace=wrap;fontSize=13;spacing=0;strokeColor=#unset;rounded=1;absoluteArcSize=1;arcSize=12;fillColor=none;strokeWidth=NaN;lucidId=gsgypBdQhHDU;" vertex="1" parent="1">
          <mxGeometry x="1631" y="1237" width="30" height="263" as="geometry" />
        </mxCell>
        <mxCell id="xLVlrx0OUY6mFYsMY_Td-27" value="ServiceSession" style="html=1;overflow=block;blockSpacing=1;whiteSpace=wrap;fontSize=13.3;fontStyle=4;align=center;spacing=0;strokeColor=#unset;rounded=1;absoluteArcSize=1;arcSize=12;fillColor=none;strokeWidth=NaN;" vertex="1" parent="1">
          <mxGeometry x="1575" y="1050" width="143" height="92" as="geometry" />
        </mxCell>
        <mxCell id="xLVlrx0OUY6mFYsMY_Td-28" value="" style="html=1;overflow=block;blockSpacing=1;whiteSpace=wrap;shape=image;fontSize=13;spacing=0;strokeColor=none;strokeOpacity=100;rounded=1;absoluteArcSize=1;arcSize=12;strokeWidth=0;image=https://images.lucid.app/images/9dcff8de-4c1c-484d-96a2-06d82699a1f8/content;imageAspect=0;lucidId=augys-2yDY-G;" vertex="1" parent="1">
          <mxGeometry x="1205" y="810" width="288" height="127" as="geometry" />
        </mxCell>
        <mxCell id="xLVlrx0OUY6mFYsMY_Td-29" value="" style="html=1;jettySize=18;whiteSpace=wrap;fontSize=13;strokeColor=#333333;strokeOpacity=100;strokeWidth=0.8;rounded=1;arcSize=10;edgeStyle=orthogonalEdgeStyle;startArrow=none;endArrow=block;endFill=1;exitX=1.012;exitY=0.351;exitPerimeter=0;entryX=-0.012;entryY=0.174;entryPerimeter=0;lucidId=UugyU.EN0dR5;" edge="1" parent="1" source="xLVlrx0OUY6mFYsMY_Td-13" target="xLVlrx0OUY6mFYsMY_Td-23">
          <mxGeometry width="100" height="100" relative="1" as="geometry">
            <Array as="points" />
          </mxGeometry>
        </mxCell>
        <mxCell id="xLVlrx0OUY6mFYsMY_Td-30" value="add.CallTax (geopoint)i" style="text;html=1;resizable=0;labelBackgroundColor=default;align=center;verticalAlign=middle;fontColor=#3a414a;fontSize=13.3;" vertex="1" parent="xLVlrx0OUY6mFYsMY_Td-29">
          <mxGeometry relative="1" as="geometry">
            <mxPoint as="offset" />
          </mxGeometry>
        </mxCell>
        <mxCell id="xLVlrx0OUY6mFYsMY_Td-31" value="" style="html=1;jettySize=18;whiteSpace=wrap;fontSize=13;strokeColor=#333333;strokeOpacity=100;strokeWidth=0.8;rounded=1;arcSize=10;edgeStyle=orthogonalEdgeStyle;startArrow=none;endArrow=block;endFill=1;exitX=1.012;exitY=0.266;exitPerimeter=0;entryX=-0.012;entryY=0.684;entryPerimeter=0;lucidId=_wgyZO.2T2Fo;" edge="1" parent="1" source="xLVlrx0OUY6mFYsMY_Td-23" target="xLVlrx0OUY6mFYsMY_Td-16">
          <mxGeometry width="100" height="100" relative="1" as="geometry">
            <Array as="points" />
          </mxGeometry>
        </mxCell>
        <mxCell id="xLVlrx0OUY6mFYsMY_Td-32" value="get.Drivers" style="text;html=1;resizable=0;labelBackgroundColor=default;align=center;verticalAlign=middle;fontColor=#3a414a;fontSize=13.3;" vertex="1" parent="xLVlrx0OUY6mFYsMY_Td-31">
          <mxGeometry relative="1" as="geometry">
            <mxPoint as="offset" />
          </mxGeometry>
        </mxCell>
        <mxCell id="xLVlrx0OUY6mFYsMY_Td-33" value="" style="html=1;jettySize=18;whiteSpace=wrap;fontSize=13;strokeColor=#333333;strokeOpacity=100;strokeWidth=0.8;rounded=1;arcSize=10;edgeStyle=orthogonalEdgeStyle;endArrow=none;exitX=1.012;exitY=0.328;exitPerimeter=0;entryX=-0.012;entryY=0.842;entryPerimeter=0;lucidId=jBgy1sZUP6A.;" edge="1" parent="1" source="xLVlrx0OUY6mFYsMY_Td-23" target="xLVlrx0OUY6mFYsMY_Td-16">
          <mxGeometry width="100" height="100" relative="1" as="geometry">
            <Array as="points" />
          </mxGeometry>
        </mxCell>
        <mxCell id="xLVlrx0OUY6mFYsMY_Td-34" value="get.Drivers" style="text;html=1;resizable=0;labelBackgroundColor=default;align=center;verticalAlign=middle;fontColor=#3a414a;fontSize=13.3;" vertex="1" parent="xLVlrx0OUY6mFYsMY_Td-33">
          <mxGeometry relative="1" as="geometry">
            <mxPoint as="offset" />
          </mxGeometry>
        </mxCell>
        <mxCell id="xLVlrx0OUY6mFYsMY_Td-35" value="" style="html=1;jettySize=18;whiteSpace=wrap;fontSize=13;strokeColor=#333333;strokeOpacity=100;strokeWidth=0.8;rounded=1;arcSize=10;edgeStyle=orthogonalEdgeStyle;startArrow=none;endArrow=block;endFill=1;exitX=1.012;exitY=0.448;exitPerimeter=0;entryX=-0.012;entryY=0.824;entryPerimeter=0;lucidId=PBgyUimku0ZZ;" edge="1" parent="1" source="xLVlrx0OUY6mFYsMY_Td-23" target="xLVlrx0OUY6mFYsMY_Td-26">
          <mxGeometry width="100" height="100" relative="1" as="geometry">
            <Array as="points" />
          </mxGeometry>
        </mxCell>
        <mxCell id="xLVlrx0OUY6mFYsMY_Td-36" value="get.classCar" style="text;html=1;resizable=0;labelBackgroundColor=default;align=center;verticalAlign=middle;fontColor=#3a414a;fontSize=13.3;" vertex="1" parent="xLVlrx0OUY6mFYsMY_Td-35">
          <mxGeometry relative="1" as="geometry">
            <mxPoint as="offset" />
          </mxGeometry>
        </mxCell>
        <mxCell id="xLVlrx0OUY6mFYsMY_Td-37" value="" style="html=1;jettySize=18;whiteSpace=wrap;fontSize=13;strokeColor=#333333;strokeOpacity=100;strokeWidth=0.8;rounded=1;arcSize=10;edgeStyle=orthogonalEdgeStyle;endArrow=none;exitX=1.012;exitY=0.513;exitPerimeter=0;entryX=-0.012;entryY=0.943;entryPerimeter=0;lucidId=.Bgyqi~Jvul8;" edge="1" parent="1" source="xLVlrx0OUY6mFYsMY_Td-23" target="xLVlrx0OUY6mFYsMY_Td-26">
          <mxGeometry width="100" height="100" relative="1" as="geometry">
            <Array as="points" />
          </mxGeometry>
        </mxCell>
        <mxCell id="xLVlrx0OUY6mFYsMY_Td-38" value="get.classCar" style="text;html=1;resizable=0;labelBackgroundColor=default;align=center;verticalAlign=middle;fontColor=#3a414a;fontSize=13.3;" vertex="1" parent="xLVlrx0OUY6mFYsMY_Td-37">
          <mxGeometry relative="1" as="geometry">
            <mxPoint as="offset" />
          </mxGeometry>
        </mxCell>
        <mxCell id="xLVlrx0OUY6mFYsMY_Td-39" value="" style="html=1;jettySize=18;whiteSpace=wrap;fontSize=13;strokeColor=#333333;strokeOpacity=100;strokeWidth=0.8;rounded=1;arcSize=10;edgeStyle=orthogonalEdgeStyle;startArrow=none;endArrow=block;endFill=1;exitX=1.012;exitY=0.6;exitPerimeter=0;entryX=-0.012;entryY=0.6;entryPerimeter=0;lucidId=qCgyMywtnLvZ;" edge="1" parent="1" source="xLVlrx0OUY6mFYsMY_Td-23" target="xLVlrx0OUY6mFYsMY_Td-19">
          <mxGeometry width="100" height="100" relative="1" as="geometry">
            <Array as="points" />
          </mxGeometry>
        </mxCell>
        <mxCell id="xLVlrx0OUY6mFYsMY_Td-40" value="get.Order (geopoint)" style="text;html=1;resizable=0;labelBackgroundColor=default;align=center;verticalAlign=middle;fontColor=#3a414a;fontSize=13.3;" vertex="1" parent="xLVlrx0OUY6mFYsMY_Td-39">
          <mxGeometry relative="1" as="geometry">
            <mxPoint as="offset" />
          </mxGeometry>
        </mxCell>
        <mxCell id="xLVlrx0OUY6mFYsMY_Td-41" value="" style="html=1;jettySize=18;whiteSpace=wrap;fontSize=13;strokeColor=#333333;strokeOpacity=100;strokeWidth=0.8;rounded=1;arcSize=10;edgeStyle=orthogonalEdgeStyle;endArrow=none;exitX=1.012;exitY=0.668;exitPerimeter=0;lucidId=JDgygoqL0200;" edge="1" parent="1" source="xLVlrx0OUY6mFYsMY_Td-19">
          <mxGeometry width="100" height="100" relative="1" as="geometry">
            <Array as="points" />
            <mxPoint x="2147" y="1561" as="targetPoint" />
          </mxGeometry>
        </mxCell>
        <mxCell id="xLVlrx0OUY6mFYsMY_Td-42" value="add.Answer " style="text;html=1;resizable=0;labelBackgroundColor=default;align=center;verticalAlign=middle;fontColor=#3a414a;fontSize=13.3;" vertex="1" parent="xLVlrx0OUY6mFYsMY_Td-41">
          <mxGeometry relative="1" as="geometry">
            <mxPoint as="offset" />
          </mxGeometry>
        </mxCell>
        <mxCell id="xLVlrx0OUY6mFYsMY_Td-43" value="" style="html=1;jettySize=18;whiteSpace=wrap;fontSize=13;strokeColor=#333333;strokeOpacity=100;strokeWidth=0.8;rounded=1;arcSize=10;edgeStyle=orthogonalEdgeStyle;endArrow=none;exitX=1.012;exitY=0.758;exitPerimeter=0;lucidId=XEgyvw6dOd2s;" edge="1" parent="1" source="xLVlrx0OUY6mFYsMY_Td-23">
          <mxGeometry width="100" height="100" relative="1" as="geometry">
            <Array as="points" />
            <mxPoint x="1907" y="1605" as="targetPoint" />
          </mxGeometry>
        </mxCell>
        <mxCell id="xLVlrx0OUY6mFYsMY_Td-44" value="add.Answer " style="text;html=1;resizable=0;labelBackgroundColor=default;align=center;verticalAlign=middle;fontColor=#3a414a;fontSize=13.3;" vertex="1" parent="xLVlrx0OUY6mFYsMY_Td-43">
          <mxGeometry relative="1" as="geometry">
            <mxPoint as="offset" />
          </mxGeometry>
        </mxCell>
        <mxCell id="xLVlrx0OUY6mFYsMY_Td-45" value="" style="html=1;jettySize=18;whiteSpace=wrap;fontSize=13;strokeColor=#333333;strokeOpacity=100;strokeWidth=0.8;rounded=1;arcSize=10;edgeStyle=orthogonalEdgeStyle;endArrow=none;exitX=1.012;exitY=0.829;exitPerimeter=0;entryX=-0.012;entryY=0.814;entryPerimeter=0;lucidId=oFgyq-2ke2T3;" edge="1" parent="1" source="xLVlrx0OUY6mFYsMY_Td-3" target="xLVlrx0OUY6mFYsMY_Td-23">
          <mxGeometry width="100" height="100" relative="1" as="geometry">
            <Array as="points" />
          </mxGeometry>
        </mxCell>
        <mxCell id="xLVlrx0OUY6mFYsMY_Td-46" value="get.Order " style="text;html=1;resizable=0;labelBackgroundColor=default;align=center;verticalAlign=middle;fontColor=#3a414a;fontSize=13.3;" vertex="1" parent="xLVlrx0OUY6mFYsMY_Td-45">
          <mxGeometry relative="1" as="geometry">
            <mxPoint as="offset" />
          </mxGeometry>
        </mxCell>
        <mxCell id="xLVlrx0OUY6mFYsMY_Td-47" value="Travels" style="html=1;overflow=block;blockSpacing=1;swimlane;childLayout=stackLayout;horizontal=1;horizontalStack=0;resizeParent=1;resizeParentMax=0;resizeLast=0;collapsible=0;fontStyle=0;marginBottom=0;swimlaneFillColor=#ffffff;startSize=30;whiteSpace=wrap;fontSize=16.7;fontColor=#ffffff;align=left;spacing=0;strokeColor=#333333;strokeOpacity=100;strokeWidth=0.8;fillColor=#d9d9d9;" vertex="1" parent="1">
          <mxGeometry x="780" y="301" width="150" height="102" as="geometry" />
        </mxCell>
        <mxCell id="xLVlrx0OUY6mFYsMY_Td-48" value="Travel_ID" style="part=1;resizeHeight=0;strokeColor=none;align=left;verticalAlign=top;spacingLeft=4;spacingRight=4;overflow=hidden;rotatable=0;points=[[0,0.5],[1,0.5]];portConstraint=eastwest;html=1;whiteSpace=wrap;#FFFFFFwhiteSpace=wrap;fontSize=16.8;fontColor=#333333;fillColor=none;strokeOpacity=100;" vertex="1" parent="xLVlrx0OUY6mFYsMY_Td-47">
          <mxGeometry y="30" width="150" height="24" as="geometry" />
        </mxCell>
        <mxCell id="xLVlrx0OUY6mFYsMY_Td-49" value="User_ID" style="part=1;resizeHeight=0;strokeColor=none;align=left;verticalAlign=top;spacingLeft=4;spacingRight=4;overflow=hidden;rotatable=0;points=[[0,0.5],[1,0.5]];portConstraint=eastwest;html=1;whiteSpace=wrap;#FFFFFFwhiteSpace=wrap;fontSize=16.8;fontColor=#333333;fillColor=#000000;opacity=5;" vertex="1" parent="xLVlrx0OUY6mFYsMY_Td-47">
          <mxGeometry y="54" width="150" height="24" as="geometry" />
        </mxCell>
        <mxCell id="xLVlrx0OUY6mFYsMY_Td-50" value="CarsDrivers" style="part=1;resizeHeight=0;strokeColor=none;align=left;verticalAlign=top;spacingLeft=4;spacingRight=4;overflow=hidden;rotatable=0;points=[[0,0.5],[1,0.5]];portConstraint=eastwest;html=1;whiteSpace=wrap;#FFFFFFwhiteSpace=wrap;fontSize=16.8;fontColor=#333333;fillColor=none;strokeOpacity=100;" vertex="1" parent="xLVlrx0OUY6mFYsMY_Td-47">
          <mxGeometry y="78" width="150" height="24" as="geometry" />
        </mxCell>
        <mxCell id="xLVlrx0OUY6mFYsMY_Td-63" value="Drivers" style="html=1;overflow=block;blockSpacing=1;swimlane;childLayout=stackLayout;horizontal=1;horizontalStack=0;resizeParent=1;resizeParentMax=0;resizeLast=0;collapsible=0;fontStyle=0;marginBottom=0;swimlaneFillColor=#ffffff;startSize=30;whiteSpace=wrap;fontSize=16.7;fontColor=#ffffff;align=left;spacing=0;strokeColor=#333333;strokeOpacity=100;strokeWidth=0.8;fillColor=#d9d9d9;" vertex="1" parent="1">
          <mxGeometry x="1275" y="300" width="150" height="126" as="geometry" />
        </mxCell>
        <mxCell id="xLVlrx0OUY6mFYsMY_Td-64" value="Driver_ID" style="part=1;resizeHeight=0;strokeColor=none;align=left;verticalAlign=top;spacingLeft=4;spacingRight=4;overflow=hidden;rotatable=0;points=[[0,0.5],[1,0.5]];portConstraint=eastwest;html=1;whiteSpace=wrap;#FFFFFFwhiteSpace=wrap;fontSize=16.8;fontColor=#333333;fillColor=none;strokeOpacity=100;" vertex="1" parent="xLVlrx0OUY6mFYsMY_Td-63">
          <mxGeometry y="30" width="150" height="24" as="geometry" />
        </mxCell>
        <mxCell id="xLVlrx0OUY6mFYsMY_Td-65" value="FirstName" style="part=1;resizeHeight=0;strokeColor=none;align=left;verticalAlign=top;spacingLeft=4;spacingRight=4;overflow=hidden;rotatable=0;points=[[0,0.5],[1,0.5]];portConstraint=eastwest;html=1;whiteSpace=wrap;#FFFFFFwhiteSpace=wrap;fontSize=16.8;fontColor=#333333;fillColor=#000000;opacity=5;" vertex="1" parent="xLVlrx0OUY6mFYsMY_Td-63">
          <mxGeometry y="54" width="150" height="24" as="geometry" />
        </mxCell>
        <mxCell id="xLVlrx0OUY6mFYsMY_Td-66" value="LastName" style="part=1;resizeHeight=0;strokeColor=none;align=left;verticalAlign=top;spacingLeft=4;spacingRight=4;overflow=hidden;rotatable=0;points=[[0,0.5],[1,0.5]];portConstraint=eastwest;html=1;whiteSpace=wrap;#FFFFFFwhiteSpace=wrap;fontSize=16.8;fontColor=#333333;fillColor=none;strokeOpacity=100;" vertex="1" parent="xLVlrx0OUY6mFYsMY_Td-63">
          <mxGeometry y="78" width="150" height="24" as="geometry" />
        </mxCell>
        <mxCell id="xLVlrx0OUY6mFYsMY_Td-67" value="Image" style="part=1;resizeHeight=0;strokeColor=none;align=left;verticalAlign=top;spacingLeft=4;spacingRight=4;overflow=hidden;rotatable=0;points=[[0,0.5],[1,0.5]];portConstraint=eastwest;html=1;whiteSpace=wrap;#FFFFFFwhiteSpace=wrap;fontSize=16.8;fontColor=#333333;fillColor=#000000;opacity=5;" vertex="1" parent="xLVlrx0OUY6mFYsMY_Td-63">
          <mxGeometry y="102" width="150" height="24" as="geometry" />
        </mxCell>
        <mxCell id="xLVlrx0OUY6mFYsMY_Td-68" value="Cars" style="html=1;overflow=block;blockSpacing=1;swimlane;childLayout=stackLayout;horizontal=1;horizontalStack=0;resizeParent=1;resizeParentMax=0;resizeLast=0;collapsible=0;fontStyle=0;marginBottom=0;swimlaneFillColor=#ffffff;startSize=30;whiteSpace=wrap;fontSize=16.7;fontColor=#ffffff;align=left;spacing=0;strokeColor=#333333;strokeOpacity=100;strokeWidth=0.8;fillColor=#d9d9d9;" vertex="1" parent="1">
          <mxGeometry x="887" y="510" width="150" height="126" as="geometry" />
        </mxCell>
        <mxCell id="xLVlrx0OUY6mFYsMY_Td-69" value="Car_ID" style="part=1;resizeHeight=0;strokeColor=none;align=left;verticalAlign=top;spacingLeft=4;spacingRight=4;overflow=hidden;rotatable=0;points=[[0,0.5],[1,0.5]];portConstraint=eastwest;html=1;whiteSpace=wrap;#FFFFFFwhiteSpace=wrap;fontSize=16.8;fontColor=#333333;fillColor=none;strokeOpacity=100;" vertex="1" parent="xLVlrx0OUY6mFYsMY_Td-68">
          <mxGeometry y="30" width="150" height="24" as="geometry" />
        </mxCell>
        <mxCell id="xLVlrx0OUY6mFYsMY_Td-70" value="Taxipark_ID" style="part=1;resizeHeight=0;strokeColor=none;align=left;verticalAlign=top;spacingLeft=4;spacingRight=4;overflow=hidden;rotatable=0;points=[[0,0.5],[1,0.5]];portConstraint=eastwest;html=1;whiteSpace=wrap;#FFFFFFwhiteSpace=wrap;fontSize=16.8;fontColor=#333333;fillColor=#000000;opacity=5;" vertex="1" parent="xLVlrx0OUY6mFYsMY_Td-68">
          <mxGeometry y="54" width="150" height="24" as="geometry" />
        </mxCell>
        <mxCell id="xLVlrx0OUY6mFYsMY_Td-71" value="Model" style="part=1;resizeHeight=0;strokeColor=none;align=left;verticalAlign=top;spacingLeft=4;spacingRight=4;overflow=hidden;rotatable=0;points=[[0,0.5],[1,0.5]];portConstraint=eastwest;html=1;whiteSpace=wrap;#FFFFFFwhiteSpace=wrap;fontSize=16.8;fontColor=#333333;fillColor=none;strokeOpacity=100;" vertex="1" parent="xLVlrx0OUY6mFYsMY_Td-68">
          <mxGeometry y="78" width="150" height="24" as="geometry" />
        </mxCell>
        <mxCell id="xLVlrx0OUY6mFYsMY_Td-72" value="Class" style="part=1;resizeHeight=0;strokeColor=none;align=left;verticalAlign=top;spacingLeft=4;spacingRight=4;overflow=hidden;rotatable=0;points=[[0,0.5],[1,0.5]];portConstraint=eastwest;html=1;whiteSpace=wrap;#FFFFFFwhiteSpace=wrap;fontSize=16.8;fontColor=#333333;fillColor=#000000;opacity=5;" vertex="1" parent="xLVlrx0OUY6mFYsMY_Td-68">
          <mxGeometry y="102" width="150" height="24" as="geometry" />
        </mxCell>
        <mxCell id="xLVlrx0OUY6mFYsMY_Td-73" value="" style="html=1;jettySize=18;whiteSpace=wrap;fontSize=13;strokeColor=#333333;strokeOpacity=100;strokeWidth=0.8;rounded=1;arcSize=12;edgeStyle=orthogonalEdgeStyle;startArrow=ERmandOne;startSize=10;endArrow=ERoneToMany;endSize=10;exitX=1.003;exitY=0.514;exitPerimeter=0;entryX=0.5;entryY=1.003;entryPerimeter=0;lucidId=y.fyKC5vpHEf;" edge="1" parent="1" source="xLVlrx0OUY6mFYsMY_Td-68" target="xLVlrx0OUY6mFYsMY_Td-75">
          <mxGeometry width="100" height="100" relative="1" as="geometry">
            <Array as="points" />
          </mxGeometry>
        </mxCell>
        <mxCell id="xLVlrx0OUY6mFYsMY_Td-74" value="" style="html=1;jettySize=18;whiteSpace=wrap;fontSize=13;strokeColor=#333333;strokeOpacity=100;strokeWidth=0.8;rounded=1;arcSize=12;edgeStyle=orthogonalEdgeStyle;startArrow=ERmandOne;startSize=10;endArrow=ERoneToMany;endSize=10;exitX=1;exitY=0.5;lucidId=_.fyZ~E6wHsE;exitDx=0;exitDy=0;entryX=0;entryY=0.5;entryDx=0;entryDy=0;" edge="1" parent="1" source="xLVlrx0OUY6mFYsMY_Td-89" target="xLVlrx0OUY6mFYsMY_Td-49">
          <mxGeometry width="100" height="100" relative="1" as="geometry">
            <Array as="points" />
            <mxPoint x="674.45" y="371.98" as="sourcePoint" />
            <mxPoint x="777" y="368" as="targetPoint" />
          </mxGeometry>
        </mxCell>
        <mxCell id="xLVlrx0OUY6mFYsMY_Td-75" value="CarsDrivers" style="html=1;overflow=block;blockSpacing=1;swimlane;childLayout=stackLayout;horizontal=1;horizontalStack=0;resizeParent=1;resizeParentMax=0;resizeLast=0;collapsible=0;fontStyle=0;marginBottom=0;swimlaneFillColor=#ffffff;startSize=30;whiteSpace=wrap;fontSize=16.7;fontColor=#ffffff;align=left;spacing=0;strokeColor=#333333;strokeOpacity=100;strokeWidth=0.8;fillColor=#d9d9d9;" vertex="1" parent="1">
          <mxGeometry x="1020" y="300" width="150" height="78" as="geometry" />
        </mxCell>
        <mxCell id="xLVlrx0OUY6mFYsMY_Td-76" value="Car_ID" style="part=1;resizeHeight=0;strokeColor=none;align=left;verticalAlign=top;spacingLeft=4;spacingRight=4;overflow=hidden;rotatable=0;points=[[0,0.5],[1,0.5]];portConstraint=eastwest;html=1;whiteSpace=wrap;#FFFFFFwhiteSpace=wrap;fontSize=16.8;fontColor=#333333;fillColor=none;strokeOpacity=100;" vertex="1" parent="xLVlrx0OUY6mFYsMY_Td-75">
          <mxGeometry y="30" width="150" height="24" as="geometry" />
        </mxCell>
        <mxCell id="xLVlrx0OUY6mFYsMY_Td-77" value="Driver_ID" style="part=1;resizeHeight=0;strokeColor=none;align=left;verticalAlign=top;spacingLeft=4;spacingRight=4;overflow=hidden;rotatable=0;points=[[0,0.5],[1,0.5]];portConstraint=eastwest;html=1;whiteSpace=wrap;#FFFFFFwhiteSpace=wrap;fontSize=16.8;fontColor=#333333;fillColor=#000000;opacity=5;" vertex="1" parent="xLVlrx0OUY6mFYsMY_Td-75">
          <mxGeometry y="54" width="150" height="24" as="geometry" />
        </mxCell>
        <mxCell id="xLVlrx0OUY6mFYsMY_Td-80" value="" style="html=1;jettySize=18;whiteSpace=wrap;fontSize=13;strokeColor=#333333;strokeOpacity=100;strokeWidth=0.8;rounded=1;arcSize=12;edgeStyle=orthogonalEdgeStyle;startArrow=ERoneToMany;startSize=10;endArrow=ERmandOne;endSize=10;exitX=1;exitY=0.5;lucidId=Tlgynsbu4qt3;endFill=0;exitDx=0;exitDy=0;entryX=0;entryY=0.25;entryDx=0;entryDy=0;" edge="1" parent="1" source="xLVlrx0OUY6mFYsMY_Td-50" target="xLVlrx0OUY6mFYsMY_Td-75">
          <mxGeometry width="100" height="100" relative="1" as="geometry">
            <Array as="points" />
            <mxPoint x="1021" y="379" as="targetPoint" />
          </mxGeometry>
        </mxCell>
        <mxCell id="xLVlrx0OUY6mFYsMY_Td-81" value="" style="html=1;jettySize=18;whiteSpace=wrap;fontSize=13;strokeColor=#333333;strokeOpacity=100;strokeWidth=0.8;rounded=1;arcSize=12;edgeStyle=orthogonalEdgeStyle;startArrow=ERmandOne;startSize=10;endArrow=ERoneToMany;endSize=10;exitX=-0.002;exitY=0.508;exitPerimeter=0;entryX=1.003;entryY=0.508;entryPerimeter=0;lucidId=1lgy.MUsGAfB;" edge="1" parent="1" source="xLVlrx0OUY6mFYsMY_Td-63" target="xLVlrx0OUY6mFYsMY_Td-75">
          <mxGeometry width="100" height="100" relative="1" as="geometry">
            <Array as="points" />
          </mxGeometry>
        </mxCell>
        <mxCell id="xLVlrx0OUY6mFYsMY_Td-82" value="Taxiparks" style="html=1;overflow=block;blockSpacing=1;swimlane;childLayout=stackLayout;horizontal=1;horizontalStack=0;resizeParent=1;resizeParentMax=0;resizeLast=0;collapsible=0;fontStyle=0;marginBottom=0;swimlaneFillColor=#ffffff;startSize=30;whiteSpace=wrap;fontSize=16.7;fontColor=#ffffff;align=left;spacing=0;strokeColor=#333333;strokeOpacity=100;strokeWidth=0.8;fillColor=#d9d9d9;" vertex="1" parent="1">
          <mxGeometry x="675" y="510" width="150" height="126" as="geometry" />
        </mxCell>
        <mxCell id="xLVlrx0OUY6mFYsMY_Td-83" value="Taxipark_ID" style="part=1;resizeHeight=0;strokeColor=none;align=left;verticalAlign=top;spacingLeft=4;spacingRight=4;overflow=hidden;rotatable=0;points=[[0,0.5],[1,0.5]];portConstraint=eastwest;html=1;whiteSpace=wrap;#FFFFFFwhiteSpace=wrap;fontSize=16.8;fontColor=#333333;fillColor=none;strokeOpacity=100;" vertex="1" parent="xLVlrx0OUY6mFYsMY_Td-82">
          <mxGeometry y="30" width="150" height="24" as="geometry" />
        </mxCell>
        <mxCell id="xLVlrx0OUY6mFYsMY_Td-84" value="Name" style="part=1;resizeHeight=0;strokeColor=none;align=left;verticalAlign=top;spacingLeft=4;spacingRight=4;overflow=hidden;rotatable=0;points=[[0,0.5],[1,0.5]];portConstraint=eastwest;html=1;whiteSpace=wrap;#FFFFFFwhiteSpace=wrap;fontSize=16.8;fontColor=#333333;fillColor=#000000;opacity=5;" vertex="1" parent="xLVlrx0OUY6mFYsMY_Td-82">
          <mxGeometry y="54" width="150" height="24" as="geometry" />
        </mxCell>
        <mxCell id="xLVlrx0OUY6mFYsMY_Td-85" value="Boss" style="part=1;resizeHeight=0;strokeColor=none;align=left;verticalAlign=top;spacingLeft=4;spacingRight=4;overflow=hidden;rotatable=0;points=[[0,0.5],[1,0.5]];portConstraint=eastwest;html=1;whiteSpace=wrap;#FFFFFFwhiteSpace=wrap;fontSize=16.8;fontColor=#333333;fillColor=none;strokeOpacity=100;" vertex="1" parent="xLVlrx0OUY6mFYsMY_Td-82">
          <mxGeometry y="78" width="150" height="24" as="geometry" />
        </mxCell>
        <mxCell id="xLVlrx0OUY6mFYsMY_Td-86" value="Town" style="part=1;resizeHeight=0;strokeColor=none;align=left;verticalAlign=top;spacingLeft=4;spacingRight=4;overflow=hidden;rotatable=0;points=[[0,0.5],[1,0.5]];portConstraint=eastwest;html=1;whiteSpace=wrap;#FFFFFFwhiteSpace=wrap;fontSize=16.8;fontColor=#333333;fillColor=#000000;opacity=5;" vertex="1" parent="xLVlrx0OUY6mFYsMY_Td-82">
          <mxGeometry y="102" width="150" height="24" as="geometry" />
        </mxCell>
        <mxCell id="xLVlrx0OUY6mFYsMY_Td-87" value="" style="html=1;jettySize=18;whiteSpace=wrap;fontSize=13;strokeColor=#333333;strokeOpacity=100;strokeWidth=0.8;rounded=1;arcSize=24;edgeStyle=orthogonalEdgeStyle;startArrow=ERmandOne;startSize=10;endArrow=ERmany;endSize=10;exitX=1;exitY=0.5;entryX=0;entryY=0.5;lucidId=hogyzIrU1ASG;exitDx=0;exitDy=0;entryDx=0;entryDy=0;" edge="1" parent="1" source="xLVlrx0OUY6mFYsMY_Td-83" target="xLVlrx0OUY6mFYsMY_Td-70">
          <mxGeometry width="100" height="100" relative="1" as="geometry">
            <Array as="points" />
          </mxGeometry>
        </mxCell>
        <mxCell id="xLVlrx0OUY6mFYsMY_Td-88" value="Users" style="html=1;overflow=block;blockSpacing=1;swimlane;childLayout=stackLayout;horizontal=1;horizontalStack=0;resizeParent=1;resizeParentMax=0;resizeLast=0;collapsible=0;fontStyle=0;marginBottom=0;swimlaneFillColor=#ffffff;startSize=30;whiteSpace=wrap;fontSize=16.7;fontColor=#ffffff;align=left;spacing=0;strokeColor=#333333;strokeOpacity=100;strokeWidth=0.8;fillColor=#d9d9d9;" vertex="1" parent="1">
          <mxGeometry x="525" y="305" width="150" height="126" as="geometry" />
        </mxCell>
        <mxCell id="xLVlrx0OUY6mFYsMY_Td-89" value="User_ID" style="part=1;resizeHeight=0;strokeColor=none;align=left;verticalAlign=top;spacingLeft=4;spacingRight=4;overflow=hidden;rotatable=0;points=[[0,0.5],[1,0.5]];portConstraint=eastwest;html=1;whiteSpace=wrap;#FFFFFFwhiteSpace=wrap;fontSize=16.8;fontColor=#333333;fillColor=none;strokeOpacity=100;" vertex="1" parent="xLVlrx0OUY6mFYsMY_Td-88">
          <mxGeometry y="30" width="150" height="24" as="geometry" />
        </mxCell>
        <mxCell id="xLVlrx0OUY6mFYsMY_Td-90" value="FirstName" style="part=1;resizeHeight=0;strokeColor=none;align=left;verticalAlign=top;spacingLeft=4;spacingRight=4;overflow=hidden;rotatable=0;points=[[0,0.5],[1,0.5]];portConstraint=eastwest;html=1;whiteSpace=wrap;#FFFFFFwhiteSpace=wrap;fontSize=16.8;fontColor=#333333;fillColor=#000000;opacity=5;" vertex="1" parent="xLVlrx0OUY6mFYsMY_Td-88">
          <mxGeometry y="54" width="150" height="24" as="geometry" />
        </mxCell>
        <mxCell id="xLVlrx0OUY6mFYsMY_Td-91" value="MiddleName" style="part=1;resizeHeight=0;strokeColor=none;align=left;verticalAlign=top;spacingLeft=4;spacingRight=4;overflow=hidden;rotatable=0;points=[[0,0.5],[1,0.5]];portConstraint=eastwest;html=1;whiteSpace=wrap;#FFFFFFwhiteSpace=wrap;fontSize=16.8;fontColor=#333333;fillColor=none;strokeOpacity=100;" vertex="1" parent="xLVlrx0OUY6mFYsMY_Td-88">
          <mxGeometry y="78" width="150" height="24" as="geometry" />
        </mxCell>
        <mxCell id="xLVlrx0OUY6mFYsMY_Td-92" value="LastName" style="part=1;resizeHeight=0;strokeColor=none;align=left;verticalAlign=top;spacingLeft=4;spacingRight=4;overflow=hidden;rotatable=0;points=[[0,0.5],[1,0.5]];portConstraint=eastwest;html=1;whiteSpace=wrap;#FFFFFFwhiteSpace=wrap;fontSize=16.8;fontColor=#333333;fillColor=#000000;opacity=5;" vertex="1" parent="xLVlrx0OUY6mFYsMY_Td-88">
          <mxGeometry y="102" width="150" height="24" as="geometry" />
        </mxCell>
      </root>
    </mxGraphModel>
  </diagram>
</mxfile>
